<svg width="407" height="297" viewBox="0 0 407 297" fill="none" xmlns="http://www.w3.org/2000/svg">
<g id="logo_a 1" clip-path="url(#clip0_128_2)" filter="url(#filter0_d_128_2)">
<g id="Layer 2">
<g id="Layer 1">
<path id="Vector" d="M227.07 154.41C222.21 162.21 217.353 170.007 212.5 177.8L220.27 182.35C225.08 174.52 229.81 166.64 234.84 158.96C235.433 157.927 235.597 156.703 235.296 155.55C234.995 154.398 234.253 153.41 233.23 152.8C232.193 152.225 230.975 152.071 229.827 152.371C228.68 152.671 227.693 153.401 227.07 154.41C222.07 162.1 217.3 169.97 212.5 177.8C211.897 178.83 211.727 180.058 212.029 181.213C212.331 182.369 213.08 183.357 214.11 183.96C215.14 184.563 216.368 184.733 217.523 184.431C218.679 184.129 219.667 183.38 220.27 182.35C225.123 174.55 229.98 166.753 234.84 158.96C235.431 157.927 235.593 156.703 235.292 155.551C234.991 154.4 234.251 153.412 233.23 152.8C232.194 152.222 230.974 152.067 229.826 152.367C228.678 152.667 227.691 153.399 227.07 154.41Z" fill="#E6E6E6"/>
<path id="Vector_2" d="M277.41 157.33L234.36 194.33L223.6 203.6L218.49 208C218.13 208.3 217.78 208.61 217.41 208.9C217.21 209.08 217 209.24 216.79 209.41C216.79 209.41 216.23 209.85 216.61 209.56C216.99 209.27 216.46 209.67 216.43 209.69L215.77 210.16C215.34 210.47 214.89 210.76 214.44 211.03C213.99 211.3 213.75 211.44 213.44 211.62L212.73 211.98C212.67 211.98 212.07 212.24 212.53 212.07C212.99 211.9 212.26 212.15 212.14 212.19L211.57 212.37C211.047 212.521 210.517 212.641 209.98 212.73C210.85 212.59 209.76 212.73 209.44 212.73C209.12 212.73 208.07 212.54 208.96 212.73C208.54 212.64 208.11 212.49 207.7 212.41C207.29 212.33 207.83 212.48 207.91 212.52C207.632 212.389 207.361 212.242 207.1 212.08C206.94 211.99 206.79 211.88 206.63 211.78C206.73 211.84 207.11 212.25 206.82 211.89C206.657 211.704 206.483 211.527 206.3 211.36C205.93 211.03 206.4 211.49 206.44 211.56C206.33 211.37 206.19 211.16 206.07 210.97C205.95 210.78 205.7 210.39 206 210.89C206.3 211.39 206 210.95 206 210.8C206 210.65 205.84 210.27 205.78 209.99C205.764 209.82 205.731 209.653 205.68 209.49C205.91 209.6 205.68 210.36 205.74 209.67C205.74 209.26 205.74 208.86 205.74 208.45C205.74 208.27 205.74 208.09 205.79 207.92C205.79 208.09 205.61 208.86 205.79 208.04C205.9 207.55 206 207.04 206.14 206.59C206.28 206.14 206.44 205.59 206.62 205.15L206.83 204.61C207.07 203.94 206.38 205.54 206.91 204.43C207.32 203.55 207.76 202.69 208.23 201.84C209.39 199.78 210.7 197.84 211.94 195.84C214.727 191.36 217.517 186.887 220.31 182.42C220.903 181.387 221.067 180.163 220.766 179.01C220.465 177.858 219.723 176.87 218.7 176.26C217.664 175.682 216.444 175.527 215.297 175.827C214.149 176.127 213.161 176.859 212.54 177.87C210.12 181.73 207.78 185.63 205.29 189.44C204.69 190.35 204.09 191.26 203.48 192.16C203.23 192.54 202.97 192.9 202.71 193.27L202.36 193.73C202.9 193.01 202.36 193.73 202.23 193.87C201.044 195.297 199.753 196.634 198.37 197.87C197.7 198.47 197 199.05 196.29 199.61C196.94 199.09 196.02 199.8 195.81 199.96L194.53 200.85C192.955 201.91 191.323 202.881 189.64 203.76C188.83 204.18 188.01 204.59 187.17 204.97C186.76 205.17 186.34 205.34 185.92 205.54C185.5 205.74 186.03 205.49 186.09 205.47L185.18 205.84C183.44 206.53 181.66 207.15 179.86 207.7C179.023 207.993 178.168 208.23 177.3 208.41C177.3 208.36 178.2 208.41 177.65 208.36C177.427 208.34 177.203 208.34 176.98 208.36C176.41 208.47 177.44 208.36 177.36 208.43C177.28 208.5 176.72 208.24 176.59 208.23C176.04 208.23 177.01 208.37 176.93 208.39C176.732 208.312 176.544 208.212 176.37 208.09C175.71 207.76 176.95 208.65 176.18 207.93C176.18 207.93 175.84 207.63 175.85 207.59C175.86 207.55 176.44 208.59 175.99 207.75C175.932 207.604 175.854 207.466 175.76 207.34C175.64 207.12 175.65 207.15 175.76 207.45C175.87 207.75 175.89 207.78 175.76 207.45C175.743 207.288 175.702 207.13 175.64 206.98C175.34 206.57 175.64 207.75 175.64 207.22C175.655 207.054 175.655 206.886 175.64 206.72C175.55 205.97 175.8 206.97 175.57 206.91C175.57 206.91 176.25 204.49 176.32 204.28C176.85 202.52 177.38 200.77 177.94 199.02C179.08 195.4 180.28 191.8 181.6 188.24C182.24 186.51 182.9 184.79 183.6 183.08L183.9 182.35C183.9 182.42 183.62 183 183.83 182.53L184.37 181.27C184.76 180.38 185.17 179.49 185.58 178.62C187.296 174.949 189.302 171.421 191.58 168.07L192.4 166.91C192.59 166.66 193.4 165.66 192.76 166.43C193.36 165.67 193.98 164.92 194.63 164.2C195.963 162.677 197.425 161.271 199 160L192.63 153.63C192.479 153.827 192.312 154.011 192.13 154.18C192.31 154.02 192.81 153.8 192.08 154.18C191.967 154.223 191.859 154.28 191.76 154.35C191.38 154.68 192.67 154.09 192.14 154.18C191.43 154.31 190.69 154.56 189.98 154.72C189.47 154.83 190.44 154.63 190.42 154.66C190.212 154.699 190.001 154.719 189.79 154.72C189.36 154.72 188.93 154.78 188.49 154.79C187.57 154.79 186.65 154.79 185.73 154.79C184.81 154.79 184.06 154.67 183.23 154.58L181.79 154.41C182.79 154.54 181.58 154.41 181.2 154.32C179.5 154.05 177.8 153.73 176.12 153.37C175.42 153.22 174.71 153.08 174.03 152.88L173.31 152.64C172.69 152.45 173.89 153 173.31 152.64L172.82 152.39C172.82 152.39 171.82 151.81 172.39 152.15C172.96 152.49 172.3 152.07 172.18 151.96L171.82 151.61C171.15 150.98 171.9 151.77 171.91 151.77C171.92 151.77 171.65 151.36 171.57 151.24C171.13 150.63 171.82 151.49 171.64 151.48C171.584 151.341 171.54 151.197 171.51 151.05C171.43 150.43 171.51 151.97 171.51 151.35C171.51 150.35 171.35 151.42 171.41 151.48C171.47 151.54 171.62 150.85 171.57 150.86C171.52 150.87 171.14 151.64 171.43 151.16C171.62 150.85 172.19 150.16 171.67 150.69C171.67 150.69 172.07 150.22 172.12 150.23C172.17 150.24 171.37 150.76 171.92 150.42C172.2 150.25 172.61 150.21 171.59 150.54C172.2 150.34 171.3 150.61 171.15 150.54C171 150.47 171.63 150.54 171.66 150.54C171.69 150.54 170.52 150.24 171.21 150.48C171.365 150.544 171.526 150.594 171.69 150.63C171.69 150.63 170.77 150.23 171.18 150.44C172.05 150.86 170.75 149.9 171.18 150.44C171.292 150.571 171.412 150.694 171.54 150.81C171.29 150.81 170.99 149.88 171.35 150.63C171.83 151.63 171.06 149.9 171.35 150.63C171.64 151.36 171.23 150.32 171.35 150.21C171.47 150.1 171.35 150.78 171.35 150.75C171.35 150.72 171.46 149.52 171.35 150.38C171.35 150.53 171.1 150.93 171.35 150.38C171.6 149.83 171.35 150.38 171.22 150.54L170.65 151.39C169.39 153.243 168.12 155.083 166.84 156.91C165.46 158.91 164.07 160.81 162.67 162.76C162.34 163.22 162.01 163.68 161.67 164.13C161.364 164.717 160.973 165.256 160.51 165.73C160.67 165.64 161.41 164.59 160.51 165.73C160.25 166.06 160 166.4 159.75 166.73L158.52 168.42C152.73 176.33 147.44 183.27 141.37 190.76C138.54 194.26 135.65 197.76 132.63 201.08C130.622 203.446 128.41 205.631 126.02 207.61C124.16 209.07 124.38 212.47 126.02 213.98C128.02 215.79 130.4 215.53 132.39 213.98C134.818 211.958 137.066 209.729 139.11 207.32C142.29 203.79 145.32 200.12 148.3 196.43C151.887 191.97 155.41 187.46 158.87 182.9C160.623 180.613 162.35 178.31 164.05 175.99L166.29 172.99C166.7 172.43 167.14 171.88 167.53 171.3C168.08 170.46 166.47 172.64 167.6 171.17C167.92 170.76 168.23 170.34 168.54 169.91C171.76 165.49 174.93 161.03 178.01 156.51C179.66 154.08 180.58 151.75 180.08 148.77C179.833 147.568 179.343 146.428 178.64 145.422C177.936 144.416 177.035 143.565 175.99 142.92C174.96 142.268 173.801 141.846 172.594 141.682C171.386 141.518 170.157 141.617 168.99 141.97C167.569 142.481 166.284 143.31 165.232 144.393C164.18 145.476 163.39 146.785 162.92 148.22C160.77 154.01 165.34 159.22 170.42 161.22C172.425 161.906 174.491 162.398 176.59 162.69C179.21 163.16 181.86 163.55 184.51 163.76C189.2 164.12 195.51 164.07 198.85 160.11C200.35 158.3 200.75 155.49 198.85 153.74C196.95 151.99 194.46 152.18 192.48 153.74C186.32 158.64 181.89 165.58 178.48 172.56C174.809 180.23 171.73 188.17 169.27 196.31C168.66 198.24 168.07 200.18 167.49 202.11C166.657 204.344 166.416 206.755 166.79 209.11C167.323 211.444 168.62 213.534 170.475 215.048C172.33 216.562 174.636 217.414 177.03 217.47C179.293 217.345 181.519 216.848 183.62 216C185.78 215.29 187.9 214.45 189.99 213.55C193.786 211.948 197.384 209.911 200.71 207.48C204.77 204.528 208.297 200.906 211.14 196.77C214.31 192.1 217.2 187.25 220.2 182.48C220.793 181.447 220.957 180.223 220.656 179.07C220.355 177.918 219.613 176.93 218.59 176.32C217.554 175.742 216.334 175.587 215.187 175.887C214.039 176.187 213.051 176.919 212.43 177.93C209.75 182.2 207.1 186.47 204.43 190.75C202.02 194.62 199.52 198.39 197.89 202.67C196.26 206.95 195.95 211.67 198.18 215.61C199.434 217.694 201.254 219.378 203.428 220.469C205.602 221.559 208.04 222.011 210.46 221.77C215.46 221.28 219.56 218.77 223.39 215.64C227.22 212.51 230.87 209.24 234.6 206.04L257.6 186.23L283.66 163.83C284.499 162.982 284.969 161.838 284.969 160.645C284.969 159.452 284.499 158.308 283.66 157.46C282.8 156.645 281.66 156.19 280.475 156.19C279.29 156.19 278.15 156.645 277.29 157.46L277.41 157.33Z" fill="#E6E6E6"/>
<path id="Vector_3" d="M259.42 183.94C260.395 184.456 261.34 185.027 262.25 185.65C262.41 185.76 263.81 186.8 263.06 186.21C263.52 186.57 263.97 186.94 264.4 187.33C265.228 188.06 266.016 188.834 266.76 189.65C267.113 190.03 267.447 190.42 267.76 190.82C267.93 191.02 268.09 191.23 268.25 191.43C267.65 190.66 268.42 191.69 268.48 191.77C269.11 192.67 269.7 193.6 270.24 194.56C270.493 195.02 270.733 195.48 270.96 195.94C271.08 196.17 271.19 196.41 271.3 196.64C271.41 196.87 271.46 197 271.53 197.18C271.36 196.75 271.33 196.7 271.46 197.01C271.888 198.144 272.259 199.299 272.57 200.47C272.71 201.03 272.82 201.59 272.92 202.15C273.09 203.04 272.97 202.42 272.92 202.22C272.92 202.65 273.01 203.07 273.03 203.5C273.092 204.627 273.068 205.757 272.96 206.88C273.03 206.06 272.96 206.76 272.96 206.93C272.89 207.27 272.82 207.62 272.74 207.93C272.587 208.539 272.403 209.14 272.19 209.73C271.77 210.93 272.42 209.43 272.07 210C271.94 210.2 271.85 210.44 271.73 210.65C271.498 211.082 271.241 211.499 270.96 211.9C270.82 212.1 270.29 212.73 270.9 212.02L270.42 212.57C270.011 213.027 269.573 213.458 269.11 213.86L268.55 214.33C268.68 214.22 269.26 213.84 268.55 214.33C268.14 214.6 267.74 214.87 267.31 215.12C266.88 215.37 266.44 215.56 266 215.79C266.77 215.38 266.27 215.69 266.06 215.79C265.85 215.89 265.37 216.04 265.01 216.14C264.65 216.24 264.07 216.4 263.59 216.5C263.59 216.5 262.38 216.64 263.1 216.59C263.82 216.54 262.94 216.59 262.78 216.59C262.294 216.615 261.806 216.615 261.32 216.59L260.42 216.52C261.02 216.57 260.9 216.6 260.37 216.52C259.781 216.405 259.2 216.255 258.63 216.07L257.95 215.84C257.5 215.67 257.33 215.53 257.86 215.84C257.33 215.56 256.79 215.31 256.27 215L255.66 214.61C255.52 214.52 254.6 213.79 255.41 214.46C254.475 213.702 253.624 212.848 252.87 211.91C253.49 212.7 252.59 211.44 252.45 211.2C252.31 210.96 252.15 210.68 252.01 210.42C251.87 210.16 251.45 209.2 251.86 210.18C250.96 208.01 248.86 206.18 246.32 207.04C244.24 207.71 242.22 210.24 243.18 212.57C244.294 215.348 245.989 217.857 248.152 219.926C250.315 221.996 252.895 223.579 255.72 224.57C258.487 225.503 261.427 225.808 264.326 225.462C267.225 225.116 270.011 224.128 272.48 222.57C275.123 220.914 277.355 218.677 279.004 216.029C280.654 213.382 281.678 210.393 282 207.29C282.76 201.18 280.85 194.77 277.78 189.51C274.488 183.889 269.723 179.273 264 176.16C262.968 175.558 261.74 175.39 260.584 175.694C259.429 175.998 258.442 176.748 257.84 177.78C257.238 178.812 257.07 180.04 257.374 181.196C257.678 182.351 258.428 183.338 259.46 183.94H259.42Z" fill="#E6E6E6"/>
<path id="Vector_4" d="M278.57 215.57C282.174 213.415 285.501 210.829 288.48 207.87C291.201 205.017 293.701 201.961 295.96 198.73C301.82 190.73 307.63 182.61 313.49 174.57L351.18 122.85L372.53 93.55C373.92 91.64 372.91 88.45 370.91 87.39C369.874 86.8202 368.658 86.6695 367.514 86.969C366.37 87.2686 365.384 87.9955 364.76 89C352.293 106.1 339.827 123.207 327.36 140.32C315.14 157.09 302.77 173.77 290.71 190.67C289.46 192.42 288.21 194.18 286.92 195.9L286.49 196.46C285.79 197.4 287.08 195.73 286.35 196.65C286.07 197 285.79 197.36 285.5 197.71C284.86 198.5 284.2 199.27 283.5 200.02C282.116 201.553 280.625 202.986 279.04 204.31C278.81 204.5 277.79 205.31 278.54 204.73L277.18 205.73C276.18 206.46 275.09 207.14 274.01 207.79C272.98 208.393 272.231 209.381 271.929 210.537C271.627 211.692 271.797 212.92 272.4 213.95C273.003 214.98 273.991 215.729 275.147 216.031C276.302 216.333 277.53 216.163 278.56 215.56L278.57 215.57Z" fill="#E6E6E6"/>
<path id="Vector_5" d="M298.59 181.14L296.25 195.31C295.31 201.06 293.08 208.04 296.74 213.22C300.02 217.87 306.09 220.22 311.54 218.09C316.64 215.934 321.539 213.331 326.18 210.31C335.46 204.561 344.035 197.744 351.73 190C360.34 181.305 367.74 171.49 373.73 160.82C374.314 159.786 374.472 158.565 374.169 157.416C373.867 156.267 373.128 155.282 372.11 154.67C371.074 154.098 369.858 153.946 368.713 154.245C367.568 154.545 366.583 155.274 365.96 156.28L336.85 196.28C334.66 199.28 332.4 202.21 331.18 205.77C330.445 207.78 330.243 209.947 330.593 212.058C330.944 214.17 331.835 216.155 333.18 217.82C335.97 221.08 340.46 221.88 344.46 220.76C348.25 219.69 351.6 217.32 354.92 215.3L378.25 201.13C378.769 200.836 379.224 200.443 379.59 199.972C379.955 199.5 380.223 198.961 380.378 198.386C380.534 197.81 380.573 197.209 380.494 196.619C380.415 196.028 380.22 195.458 379.919 194.943C379.618 194.429 379.218 193.979 378.742 193.62C378.266 193.261 377.723 193 377.146 192.853C376.568 192.706 375.967 192.675 375.377 192.762C374.787 192.849 374.221 193.052 373.71 193.36L354.41 205.08C351.31 206.96 348.25 208.93 345.09 210.72C344.44 211.09 343.76 211.42 343.09 211.72C342.42 212.02 344.04 211.46 342.84 211.8C342.46 211.92 342.09 212.05 341.7 212.15C341.31 212.25 340.36 212.21 341.37 212.23H340.62H340.25C340.83 212.31 340.86 212.29 340.34 212.18C339.82 212.07 339.87 212.01 340.34 212.18C339.91 211.89 339.89 211.9 340.29 212.18C340.1 212.02 339.94 211.85 339.77 211.68C340.47 212.36 339.77 211.68 339.65 211.41C339.11 210.58 339.72 212.14 339.57 211.15C339.57 211.15 339.37 209.95 339.44 210.67C339.51 211.39 339.44 210.2 339.44 210.17C339.44 210.14 339.65 208.72 339.44 209.69C339.517 209.289 339.613 208.892 339.73 208.5C339.79 208.31 340.22 207.21 339.86 208.04C341.2 204.96 343.53 202.26 345.5 199.56L358.73 181.38L373.73 160.77L366 156.29C363.546 160.677 360.838 164.918 357.89 168.99C357.5 169.53 357.11 170.06 356.71 170.59L356.24 171.23C356.24 171.23 355.47 172.23 355.86 171.72L355.49 172.2C355.32 172.41 355.16 172.62 354.99 172.82C354.58 173.34 354.17 173.82 353.75 174.37C352.15 176.31 350.5 178.21 348.8 180.05C345.402 183.752 341.796 187.258 338 190.55C337.047 191.37 336.087 192.18 335.12 192.98L333.73 194.1L333.11 194.6L332.76 194.87C330.76 196.4 328.76 197.87 326.66 199.29C322.505 202.121 318.195 204.719 313.75 207.07C312.637 207.65 311.517 208.22 310.39 208.78L308.78 209.55C307.96 209.95 308.69 209.55 308.86 209.55C308.55 209.65 308.21 209.73 307.86 209.84C306.93 210.17 308.51 209.9 307.94 209.84C307.69 209.84 307.41 209.84 307.15 209.84C306.944 209.859 306.736 209.859 306.53 209.84C306.53 209.84 307.53 210.12 306.66 209.84L305.92 209.64C305.24 209.47 306.15 209.75 306.15 209.75C305.664 209.587 305.215 209.329 304.83 208.99C304.83 209.22 305.47 209.61 304.91 208.99L304.38 208.45C303.74 207.84 304.52 208.66 304.5 208.65C304.48 208.64 304.16 208.14 304.09 208.01C304.02 207.88 303.69 207.45 303.73 207.33C303.77 207.21 304.06 208.41 303.83 207.53C303.83 207.33 303.71 207.13 303.66 206.93C303.61 206.73 303.57 206.51 303.53 206.3L303.62 206.85C303.62 206.85 303.43 204.52 303.54 206.03C303.536 206.007 303.536 205.983 303.54 205.96C303.54 205.77 303.6 205.58 303.63 205.38L304.71 198.85L307.24 183.5C307.62 181.19 306.63 178.5 304.09 177.96C301.92 177.47 298.97 178.62 298.56 181.11L298.59 181.14Z" fill="#E6E6E6"/>
<path id="Vector_6" d="M329.47 116.09L377.19 115.24C378.383 115.24 379.528 114.766 380.372 113.922C381.216 113.078 381.69 111.933 381.69 110.74C381.69 109.547 381.216 108.402 380.372 107.558C379.528 106.714 378.383 106.24 377.19 106.24L329.47 107.09C328.276 107.09 327.132 107.564 326.288 108.408C325.444 109.252 324.97 110.397 324.97 111.59C324.97 112.783 325.444 113.928 326.288 114.772C327.132 115.616 328.276 116.09 329.47 116.09V116.09Z" fill="#E6E6E6"/>
<path id="Vector_7" d="M382.14 138C381.649 137.745 381.133 137.541 380.6 137.39C380.037 137.255 379.46 137.185 378.88 137.18C378.318 137.199 377.759 137.27 377.21 137.39C377.027 137.431 376.846 137.485 376.67 137.55C376.157 137.734 375.658 137.958 375.18 138.22C374.702 138.513 374.25 138.848 373.83 139.22C373.693 139.34 373.566 139.47 373.45 139.61C373.077 140.029 372.743 140.481 372.45 140.96C372.199 141.442 371.989 141.944 371.82 142.46C371.792 142.542 371.769 142.625 371.75 142.71C371.662 143.186 371.598 143.667 371.56 144.15C371.511 144.805 371.603 145.463 371.831 146.079C372.059 146.695 372.416 147.255 372.88 147.72C373.27 148.123 373.723 148.46 374.22 148.72C374.706 148.97 375.215 149.17 375.74 149.32C376.281 149.448 376.834 149.522 377.39 149.54C377.948 149.533 378.504 149.473 379.05 149.36C379.237 149.34 379.422 149.3 379.6 149.24C380.686 148.899 381.683 148.322 382.52 147.55C382.928 147.154 383.287 146.711 383.59 146.23C383.891 145.742 384.13 145.218 384.3 144.67C384.491 144.089 384.519 143.466 384.38 142.87C384.361 142.275 384.177 141.697 383.85 141.2C383.582 140.685 383.182 140.25 382.69 139.94C382.26 139.54 381.732 139.261 381.16 139.13L380 139C379.2 138.999 378.413 139.21 377.72 139.61L376.81 140.32C376.259 140.875 375.863 141.565 375.66 142.32V142.41L376.11 141.34C376.04 141.513 375.946 141.674 375.83 141.82L376.54 140.91C376.409 141.062 376.265 141.203 376.11 141.33L377.03 140.63C376.842 140.771 376.637 140.889 376.42 140.98L377.5 140.53C377.253 140.63 376.994 140.701 376.73 140.74L377.93 140.58C377.697 140.605 377.463 140.605 377.23 140.58L378.43 140.75C378.214 140.716 378.002 140.656 377.8 140.57L378.88 141.03C378.725 140.959 378.577 140.872 378.44 140.77L379.35 141.48L380.67 144.66C380.655 144.497 380.655 144.333 380.67 144.17L380.51 145.37C380.541 145.164 380.598 144.962 380.68 144.77L380.22 145.84C380.318 145.619 380.442 145.411 380.59 145.22L379.89 146.13C380.051 145.922 380.24 145.737 380.45 145.58L379.54 146.28C379.748 146.119 379.977 145.988 380.22 145.89L379.14 146.34C379.379 146.238 379.632 146.171 379.89 146.14L378.69 146.3C378.899 146.27 379.111 146.27 379.32 146.3L378.12 146.14C378.312 146.162 378.5 146.209 378.68 146.28L377.61 145.83H377.7C378.197 146.157 378.775 146.341 379.37 146.36C379.966 146.499 380.589 146.471 381.17 146.28C382.278 145.93 383.227 145.2 383.85 144.22L384.31 143.14C384.52 142.357 384.52 141.533 384.31 140.75L383.85 139.67C383.46 139.005 382.905 138.45 382.24 138.06L382.14 138Z" fill="#E6E6E6"/>
<path id="Vector_8" d="M242.3 137.66C242.06 137.33 241.79 136.98 241.53 136.66L241.45 136.57L241.36 136.48C241.05 136.22 240.7 135.95 240.36 135.71L240.14 135.58L240.04 135.53C239.66 135.36 239.26 135.18 238.87 135.04L238.62 134.97H238.5C238.07 134.91 237.63 134.84 237.2 134.8H236.82C236.38 134.8 235.93 134.9 235.5 134.97C235.326 135 235.155 135.047 234.99 135.11C234.463 135.284 233.956 135.515 233.48 135.8C233.105 136.057 232.745 136.334 232.4 136.63L232.21 136.82C231.94 137.13 231.7 137.47 231.45 137.82L231.37 137.93L231.25 138.15C230.793 138.981 230.546 139.912 230.53 140.86C230.527 141.079 230.55 141.297 230.6 141.51L230.68 142.11L231.14 143.18C231.352 143.548 231.615 143.885 231.92 144.18C232.09 144.33 232.29 144.47 232.46 144.6C232.63 144.73 232.82 144.9 233.02 145.03C233.088 145.08 233.162 145.12 233.24 145.15C233.658 145.363 234.092 145.541 234.54 145.68H234.66C235.07 145.76 235.51 145.8 235.94 145.85H236.21H236.45C236.931 145.81 237.408 145.74 237.88 145.64C238.416 145.48 238.935 145.269 239.43 145.01C239.596 144.934 239.754 144.84 239.9 144.73C240.355 144.434 240.783 144.1 241.18 143.73C241.493 143.372 241.787 142.999 242.06 142.61C242.12 142.53 242.17 142.44 242.22 142.36L242.28 142.23C242.46 141.85 242.63 141.44 242.78 141.05C242.819 140.96 242.849 140.866 242.87 140.77C242.87 140.77 242.87 140.68 242.87 140.64C242.94 140.21 243.01 139.77 243.04 139.34C243.05 139.244 243.05 139.146 243.04 139.05C243.012 138.561 242.938 138.075 242.82 137.6C242.82 137.55 242.82 137.51 242.82 137.46C242.66 137.06 242.5 136.64 242.3 136.25C242.026 135.739 241.627 135.305 241.14 134.99C240.71 134.593 240.182 134.317 239.61 134.19L238.42 134.03C237.622 134.025 236.838 134.236 236.15 134.64C235.67 134.94 235.21 135.27 234.75 135.58L234.06 136.06C233.925 136.157 233.781 136.24 233.63 136.31L234.71 135.86L235.9 135.7L237.09 135.86L238.16 136.31L239.78 137.92L240.24 139L240.4 140.2L240.24 141.39L239.79 142.46L239.08 143.37L239.18 143.26C239.611 142.87 239.931 142.373 240.11 141.82C240.389 141.284 240.524 140.684 240.5 140.08C240.525 139.479 240.39 138.882 240.11 138.35C239.931 137.794 239.611 137.294 239.18 136.9L238.27 136.2C237.583 135.792 236.799 135.578 236 135.58L234.8 135.74C234.044 135.947 233.355 136.346 232.8 136.9L232.72 136.99C232.589 137.14 232.465 137.297 232.35 137.46C232.215 137.611 232.092 137.771 231.98 137.94C231.98 137.94 231.53 138.94 231.52 139.03C231.397 139.418 231.343 139.824 231.36 140.23L231.52 141.43L231.97 142.51L232.33 142.96C232.64 143.451 233.075 143.852 233.59 144.12L234.67 144.58L235.87 144.74L237.08 144.57C237.26 144.57 238.08 144.15 237.64 144.34C237.64 144.34 238.03 144.19 238.21 144.1L238.42 143.98C238.92 143.66 239.42 143.3 239.91 142.98C240.17 142.81 240.42 142.63 240.69 142.46L234.53 140.85V140.95L234.08 139.87C234.131 140.003 234.167 140.14 234.19 140.28L234.03 139.08C234.045 139.216 234.045 139.354 234.03 139.49L234.19 138.29C234.171 138.449 234.128 138.605 234.06 138.75L234.52 137.68C234.443 137.851 234.345 138.012 234.23 138.16L234.94 137.25C234.797 137.43 234.633 137.591 234.45 137.73L235.36 137.03C235.167 137.177 234.955 137.298 234.73 137.39L235.81 136.94C235.624 137.018 235.429 137.071 235.23 137.1L236.43 136.94C236.261 136.96 236.089 136.96 235.92 136.94L237.11 137.1C236.977 137.081 236.846 137.047 236.72 137L237.8 137.45C237.67 137.4 237.548 137.329 237.44 137.24L238.35 137.95L238.18 137.8L239.5 140.98C239.506 140.944 239.506 140.906 239.5 140.87L239.34 142.07C239.358 141.943 239.392 141.819 239.44 141.7L238.99 142.78C239.041 142.655 239.108 142.537 239.19 142.43L238.49 143.34C238.581 143.225 238.685 143.12 238.8 143.03L237.89 143.73C238.038 143.618 238.199 143.524 238.37 143.45L237.3 143.9C237.496 143.819 237.701 143.762 237.91 143.73L236.72 143.89C236.906 143.87 237.094 143.87 237.28 143.89L236.08 143.73C236.238 143.75 236.393 143.79 236.54 143.85L235.46 143.4C235.587 143.452 235.705 143.523 235.81 143.61L234.9 142.9C234.988 142.978 235.072 143.062 235.15 143.15L234.44 142.24L234.49 142.3C234.764 142.811 235.163 143.245 235.65 143.56C236.078 143.961 236.607 144.237 237.18 144.36C237.758 144.551 238.377 144.579 238.97 144.44C239.565 144.421 240.143 144.237 240.64 143.91L241.55 143.21C242.106 142.657 242.506 141.967 242.71 141.21L242.87 140.02C242.871 139.22 242.66 138.433 242.26 137.74L242.3 137.66Z" fill="#E6E6E6"/>
<path id="Vector_9" d="M180.77 74.21C191.723 71.5149 202.091 66.8379 211.36 60.41C220.49 54.05 229.91 45.86 234.36 35.41C236.75 29.82 237.7 23.55 235.67 17.68C233.644 11.9061 229.56 7.08181 224.2 4.13001C212.7 -2.24999 199.2 -0.109986 187.12 3.03001C167.597 8.12544 148.726 15.4538 130.88 24.87C113.09 34.263 96.389 45.588 81.0801 58.64C65.7961 71.6771 52.0172 86.3818 40.0001 102.48C28.0726 118.384 18.0947 135.661 10.2801 153.94C1.32006 175 -6.11994 201.11 7.45006 222C18.7801 239.42 40.4501 247.75 60.6501 246.76C73.0201 246.15 84.8901 242.62 96.1901 237.69C106.61 233.296 116.399 227.536 125.3 220.56C141.92 207.19 154.2 189.26 166.79 172.28C168.27 170.28 169.753 168.3 171.24 166.34L172.41 164.8L173 164C173.46 163.4 172.36 164.82 173.12 163.85C173.88 162.88 174.69 161.85 175.48 160.85C176.94 159.01 177.41 156.25 175.48 154.48C173.85 152.99 170.68 152.48 169.11 154.48C162.62 162.65 156.53 171.13 150.29 179.48C148.783 181.48 147.257 183.497 145.71 185.53C145.19 186.21 145.58 185.71 145.71 185.53L145.09 186.31C144.73 186.79 144.36 187.31 143.99 187.73C143.17 188.77 142.34 189.81 141.5 190.85C138.27 194.85 134.93 198.75 131.4 202.49C127.942 206.174 124.269 209.65 120.4 212.9C119.52 213.63 118.62 214.35 117.72 215.06C118.39 214.53 117.86 214.95 117.72 215.06L116.96 215.64C116.4 216.06 115.84 216.47 115.27 216.87C113.31 218.257 111.29 219.563 109.21 220.79C98.9901 226.79 89.4401 231.43 78.2901 234.61C75.6234 235.383 72.9067 236.03 70.1401 236.55C68.8401 236.8 67.5401 237.01 66.2301 237.19L65.6801 237.26L64.8101 237.35C64.0801 237.43 63.3401 237.5 62.6101 237.55C59.8092 237.775 56.9971 237.825 54.1901 237.7C53.1101 237.653 52.0301 237.573 50.9501 237.46L49.1501 237.25C49.3001 237.25 50.1501 237.39 49.2701 237.25L48.1901 237.08C45.9204 236.698 43.6736 236.191 41.4601 235.56C40.3001 235.22 39.1501 234.86 38.0001 234.45C37.5501 234.29 37.0901 234.13 36.6401 233.95C36.1901 233.77 35.9701 233.69 35.6401 233.56C35.3101 233.43 34.4101 233.03 35.3801 233.46C33.2846 232.551 31.2444 231.519 29.2701 230.37C28.3434 229.83 27.4334 229.26 26.5401 228.66C26.0501 228.33 25.5401 227.99 25.0801 227.66L24.5001 227.24L23.9301 226.81C24.3301 227.12 24.4001 227.17 24.1501 226.97C22.3635 225.522 20.6702 223.962 19.0801 222.3C18.3501 221.52 17.6701 220.72 17.0001 219.9C16.4701 219.26 16.9501 219.9 17.0001 219.98C16.7801 219.7 16.5701 219.42 16.3601 219.13C16.0201 218.65 15.6801 218.13 15.3601 217.68C14.0778 215.737 12.9605 213.69 12.0201 211.56C11.6801 210.8 12.3701 212.56 11.8901 211.22L11.5801 210.41C11.3301 209.73 11.1001 209.05 10.8801 208.41C10.4501 207.04 10.0901 205.65 9.80006 204.25C9.67006 203.63 9.55006 202.99 9.45006 202.36C9.39006 202.01 9.33006 201.66 9.28006 201.3C9.28006 201.5 9.38006 202.13 9.28006 201.23C9.12006 199.8 9.01006 198.38 8.96006 196.95C8.86669 194.129 8.97362 191.306 9.28006 188.5C9.28006 188.14 9.36005 187.78 9.40005 187.42C9.40005 187.28 9.51005 186.53 9.40005 187.31C9.49005 186.58 9.61005 185.85 9.73005 185.13C9.97005 183.67 10.2601 182.22 10.5801 180.78C11.1867 178.033 11.9134 175.307 12.7601 172.6C13.6101 169.83 14.5701 167.1 15.6001 164.39C16.0901 163.08 16.6001 161.79 17.1301 160.5L17.7001 159.12C17.7601 158.97 18.2501 157.82 17.8301 158.81C17.9701 158.47 18.1201 158.13 18.2701 157.81C20.1501 153.41 22.1501 149.077 24.2701 144.81C28.581 136.202 33.3926 127.855 38.6801 119.81C41.3001 115.81 44.0334 111.893 46.8801 108.06C47.5801 107.11 48.2901 106.17 49.0001 105.23L49.4501 104.64L49.7801 104.21C49.3701 104.74 50.1201 103.78 50.1201 103.78L50.8001 102.9C52.2601 101.05 53.8001 99.21 55.2501 97.4C61.4445 90.003 68.0376 82.9492 75.0001 76.27C81.9498 69.5874 89.2465 63.2753 96.8601 57.36L97.5701 56.81L98.9101 55.81C99.9101 55.06 100.91 54.32 101.91 53.58C103.91 52.15 105.84 50.74 107.83 49.36C111.77 46.64 115.77 44.0267 119.83 41.52C128.039 36.4661 136.518 31.8659 145.23 27.74C147.42 26.74 149.63 25.74 151.85 24.74L155 23.38C156.11 22.9 154.43 23.61 155.13 23.33L156 23L157.72 22.29C162.213 20.47 166.753 18.7733 171.34 17.2C175.927 15.6267 180.557 14.1933 185.23 12.9C190.398 11.3362 195.667 10.13 201 9.29001C200.09 9.41001 201.56 9.23001 201.6 9.23001C201.9 9.19001 202.2 9.16001 202.5 9.14001C203.18 9.08001 203.85 9.03001 204.5 8.99001C206.072 8.90502 207.648 8.90502 209.22 8.99001C209.82 8.99001 210.42 9.08001 211.02 9.15001C210.23 9.06001 211.19 9.15001 211.38 9.20001L212.5 9.40001C214.03 9.70549 215.534 10.1267 217 10.66L217.87 10.99C217.06 10.67 218.24 11.15 218.31 11.19C218.78 11.41 219.24 11.65 219.7 11.9C220.16 12.15 220.82 12.56 221.36 12.9C221.58 13.04 221.79 13.2 222 13.35C222.85 13.93 221.62 12.96 222.32 13.6C223.24 14.43 224.06 15.3 224.91 16.21C225.41 16.74 224.35 15.36 225.03 16.37C225.18 16.59 225.33 16.8 225.47 17.02C225.93 17.72 226.3 18.45 226.69 19.18C226.76 19.31 227.04 19.98 226.76 19.28C226.86 19.54 226.96 19.8 227.05 20.06C227.274 20.7147 227.458 21.3826 227.6 22.06C227.66 22.32 227.7 22.58 227.76 22.84C228.01 24.05 227.76 22.27 227.76 23.01C227.76 23.75 227.85 24.44 227.83 25.16C227.83 25.42 227.83 25.68 227.83 25.94C227.83 26.2 227.67 27.38 227.83 26.29C227.76 26.8 227.66 27.29 227.55 27.83C227.252 29.1146 226.858 30.3749 226.37 31.6C226.73 30.67 226.23 31.9 226.18 32C226.13 32.1 225.95 32.49 225.83 32.73C225.53 33.34 225.2 33.94 224.83 34.53C224.133 35.7267 223.372 36.8851 222.55 38L222.06 38.66C222.5 38.05 222.06 38.66 222 38.74C221.57 39.27 221.13 39.81 220.68 40.33C219.79 41.33 218.86 42.33 217.89 43.33C216.05 45.18 214.12 46.95 212.12 48.62C211.6 49.06 211.06 49.5 210.53 49.93L209.88 50.44C210.62 49.86 209.55 50.69 209.48 50.74C208.39 51.57 207.27 52.37 206.13 53.14C201.817 56.0888 197.253 58.652 192.49 60.8L191.36 61.3C191.22 61.36 190.56 61.63 191.29 61.3L189.38 62.07C188.23 62.52 187.07 62.94 185.9 63.35C183.427 64.19 180.92 64.92 178.38 65.54C177.229 65.8569 176.251 66.6182 175.661 67.6562C175.071 68.6942 174.918 69.924 175.235 71.075C175.552 72.2261 176.313 73.2041 177.351 73.7939C178.389 74.3837 179.619 74.537 180.77 74.22V74.21Z" fill="#E6E6E6"/>
<path id="Vector_10" d="M152 82.19L165.64 108.4L150.38 116.34C143.348 119.957 135.171 120.65 127.63 118.27C120.089 115.89 113.792 110.628 110.11 103.63C106.554 96.742 105.869 88.7268 108.204 81.3352C110.538 73.9435 115.703 67.7761 122.57 64.18L138.36 56L147.73 51.13C151.47 49.1969 155.824 48.8239 159.838 50.0926C163.852 51.3614 167.2 54.1686 169.15 57.9L175.46 70L152 82.19Z" stroke="#E6E6E6" stroke-width="3" stroke-miterlimit="10"/>
<path id="Vector_11" d="M165.64 108.41V108.4" stroke="#E6E6E6" stroke-width="3" stroke-miterlimit="10"/>
<path id="Vector_12" d="M152 82.19L138.36 55.96" stroke="#E6E6E6" stroke-width="3" stroke-miterlimit="10"/>
<path id="Vector_13" d="M175 103.53L165.64 108.4L152 82.19L175.46 70L181.77 82.13C183.694 85.8685 184.062 90.2161 182.794 94.2248C181.526 98.2336 178.724 101.578 175 103.53V103.53Z" stroke="#E6E6E6" stroke-width="3" stroke-miterlimit="10"/>
<path id="Vector_14" d="M397 194.33L391.32 199.03C389.857 200.239 387.975 200.819 386.086 200.643C384.196 200.467 382.454 199.549 381.24 198.09L377.24 193.21C376.035 191.747 375.459 189.866 375.637 187.979C375.815 186.092 376.733 184.352 378.19 183.14L383.86 178.43C383.951 178.354 384.056 178.297 384.17 178.262C384.283 178.227 384.402 178.215 384.52 178.226C384.638 178.237 384.753 178.272 384.857 178.327C384.962 178.383 385.055 178.459 385.13 178.55L397.13 193.06C397.205 193.152 397.261 193.258 397.296 193.371C397.33 193.485 397.341 193.604 397.329 193.722C397.317 193.84 397.282 193.955 397.225 194.059C397.169 194.163 397.092 194.255 397 194.33V194.33Z" stroke="#E6E6E6" stroke-width="3" stroke-miterlimit="10"/>
<path id="Vector_15" d="M405.13 183.91L395.9 191.56L386.35 180.05L395.58 172.39C395.653 172.331 395.747 172.304 395.84 172.313C395.934 172.323 396.02 172.368 396.08 172.44L405.18 183.44C405.23 183.511 405.252 183.598 405.243 183.684C405.234 183.771 405.194 183.851 405.13 183.91Z" stroke="#E6E6E6" stroke-width="3" stroke-miterlimit="10"/>
<path id="&#60;DEV/&#62;" d="M219.406 240.207L241.605 227.836C241.964 227.64 242.232 227.543 242.412 227.543C242.689 227.543 242.925 227.648 243.121 227.86C243.333 228.056 243.439 228.292 243.439 228.569C243.439 228.977 243.161 229.335 242.607 229.645L223.587 240.207L242.583 250.768C243.137 251.078 243.414 251.437 243.414 251.844C243.414 252.121 243.308 252.366 243.096 252.578C242.901 252.773 242.664 252.871 242.387 252.871C242.208 252.871 241.939 252.773 241.58 252.578L219.406 240.207ZM254.049 252.406V227.909H252.313C251.824 227.909 251.474 227.82 251.262 227.64C251.05 227.445 250.944 227.192 250.944 226.882C250.944 226.573 251.05 226.328 251.262 226.149C251.474 225.953 251.824 225.856 252.313 225.856H263.364C265.092 225.856 266.664 226.214 268.082 226.931C269.517 227.648 270.609 228.463 271.358 229.376C272.646 230.925 273.624 232.563 274.292 234.29C274.765 235.545 275.001 237.028 275.001 238.74V241.576C275.001 243.678 274.537 245.716 273.608 247.688C272.679 249.66 271.13 251.38 268.963 252.846C267.349 253.922 265.483 254.46 263.364 254.46H252.313C251.824 254.46 251.474 254.362 251.262 254.167C251.05 253.971 250.944 253.727 250.944 253.433C250.944 253.124 251.05 252.879 251.262 252.7C251.474 252.504 251.824 252.406 252.313 252.406H254.049ZM256.103 252.406H263.559C265.287 252.406 266.901 251.844 268.4 250.719C269.916 249.595 271.049 248.25 271.799 246.685C272.565 245.104 272.948 243.548 272.948 242.016V238.3C272.948 237.028 272.744 235.896 272.336 234.901C271.75 233.451 270.918 232.074 269.843 230.77C269.256 230.053 268.392 229.401 267.251 228.814C266.11 228.211 264.88 227.909 263.559 227.909H256.103V252.406ZM285.49 240.647V252.406H301.283V246.343C301.283 245.854 301.373 245.504 301.552 245.292C301.748 245.08 302 244.974 302.31 244.974C302.62 244.974 302.864 245.08 303.043 245.292C303.239 245.504 303.337 245.854 303.337 246.343V254.46H280.673C280.184 254.46 279.834 254.362 279.622 254.167C279.41 253.971 279.304 253.727 279.304 253.433C279.304 253.124 279.41 252.879 279.622 252.7C279.834 252.504 280.184 252.406 280.673 252.406H283.436V227.909H280.673C280.184 227.909 279.834 227.82 279.622 227.64C279.41 227.445 279.304 227.192 279.304 226.882C279.304 226.573 279.41 226.328 279.622 226.149C279.834 225.953 280.184 225.856 280.673 225.856H302.261V232.921C302.261 233.41 302.163 233.761 301.968 233.972C301.788 234.184 301.544 234.29 301.234 234.29C300.925 234.29 300.672 234.184 300.476 233.972C300.297 233.761 300.207 233.41 300.207 232.921V227.909H285.49V238.593H292.848V236.271C292.848 235.782 292.946 235.431 293.142 235.219C293.337 235.007 293.59 234.901 293.9 234.901C294.193 234.901 294.438 235.007 294.633 235.219C294.829 235.431 294.927 235.782 294.927 236.271V242.969C294.927 243.458 294.829 243.809 294.633 244.021C294.438 244.233 294.193 244.338 293.9 244.338C293.59 244.338 293.337 244.233 293.142 244.021C292.946 243.809 292.848 243.458 292.848 242.969V240.647H285.49ZM323.775 254.46H320.915L310.573 227.909H308.984C308.609 227.909 308.34 227.877 308.178 227.811C308.015 227.73 307.876 227.608 307.762 227.445C307.664 227.265 307.615 227.078 307.615 226.882C307.615 226.687 307.664 226.508 307.762 226.345C307.876 226.165 308.015 226.043 308.178 225.978C308.34 225.896 308.609 225.856 308.984 225.856H316.637C317.028 225.856 317.297 225.896 317.443 225.978C317.606 226.043 317.737 226.165 317.835 226.345C317.949 226.508 318.006 226.687 318.006 226.882C318.006 227.078 317.949 227.265 317.835 227.445C317.72 227.608 317.582 227.73 317.419 227.811C317.272 227.877 317.011 227.909 316.637 227.909H312.7L322.235 252.406H322.382L331.795 227.909H327.883C327.492 227.909 327.215 227.877 327.052 227.811C326.889 227.73 326.75 227.608 326.636 227.445C326.538 227.265 326.489 227.078 326.489 226.882C326.489 226.687 326.546 226.508 326.66 226.345C326.774 226.165 326.905 226.043 327.052 225.978C327.215 225.896 327.492 225.856 327.883 225.856H335.511C335.902 225.856 336.179 225.896 336.342 225.978C336.505 226.043 336.635 226.165 336.733 226.345C336.847 226.508 336.904 226.687 336.904 226.882C336.904 227.078 336.847 227.265 336.733 227.445C336.619 227.608 336.48 227.73 336.317 227.811C336.171 227.877 335.902 227.909 335.511 227.909H333.946L323.775 254.46ZM361.548 222.286L345.021 257.687C344.744 258.29 344.385 258.592 343.945 258.592C343.668 258.592 343.424 258.486 343.212 258.274C343.016 258.078 342.918 257.858 342.918 257.614C342.918 257.418 343 257.149 343.163 256.807L359.666 221.406C359.845 221.031 360.016 220.787 360.179 220.673C360.342 220.558 360.537 220.501 360.766 220.501C361.043 220.501 361.279 220.607 361.475 220.819C361.687 221.015 361.793 221.235 361.793 221.479C361.793 221.659 361.711 221.928 361.548 222.286ZM395.018 240.207L372.819 252.578C372.46 252.773 372.191 252.871 372.012 252.871C371.735 252.871 371.49 252.773 371.278 252.578C371.083 252.366 370.985 252.121 370.985 251.844C370.985 251.437 371.262 251.078 371.816 250.768L390.837 240.207L371.841 229.645C371.287 229.335 371.009 228.977 371.009 228.569C371.009 228.292 371.107 228.056 371.303 227.86C371.515 227.648 371.759 227.543 372.036 227.543C372.216 227.543 372.485 227.64 372.843 227.836L395.018 240.207Z" fill="#E6E6E6"/>
</g>
</g>
</g>
<defs>
<filter id="filter0_d_128_2" x="-4" y="0" width="414.76" height="304.56" filterUnits="userSpaceOnUse" color-interpolation-filters="sRGB">
<feFlood flood-opacity="0" result="BackgroundImageFix"/>
<feColorMatrix in="SourceAlpha" type="matrix" values="0 0 0 0 0 0 0 0 0 0 0 0 0 0 0 0 0 0 127 0" result="hardAlpha"/>
<feOffset dy="4"/>
<feGaussianBlur stdDeviation="2"/>
<feComposite in2="hardAlpha" operator="out"/>
<feColorMatrix type="matrix" values="0 0 0 0 0 0 0 0 0 0 0 0 0 0 0 0 0 0 0.25 0"/>
<feBlend mode="normal" in2="BackgroundImageFix" result="effect1_dropShadow_128_2"/>
<feBlend mode="normal" in="SourceGraphic" in2="effect1_dropShadow_128_2" result="shape"/>
</filter>
<clipPath id="clip0_128_2">
<rect width="406.76" height="296.56" fill="white"/>
</clipPath>
</defs>
</svg>
