<svg xmlns="http://www.w3.org/2000/svg" viewBox="0 0 406.76 296.56"><defs><style>.cls-1,.cls-3{fill:#e6e6e6;}.cls-2{fill:none;stroke:#e6e6e6;stroke-miterlimit:10;stroke-width:3px;}.cls-3{font-size:50.07px;font-family:CourierNewPSMT, Courier New;}</style></defs><g id="Layer_2" data-name="Layer 2"><g id="Layer_1-2" data-name="Layer 1"><path class="cls-1" d="M227.07,154.41q-7.29,11.7-14.57,23.39l7.77,4.55c4.81-7.83,9.54-15.71,14.57-23.39a4.54,4.54,0,0,0-1.61-6.16,4.61,4.61,0,0,0-6.16,1.61c-5,7.69-9.77,15.56-14.57,23.39a4.5,4.5,0,1,0,7.77,4.55q7.28-11.7,14.57-23.39a4.55,4.55,0,0,0-1.61-6.16A4.6,4.6,0,0,0,227.07,154.41Z"/><path class="cls-1" d="M277.41,157.33l-43.05,37L223.6,203.6,218.49,208c-.36.3-.71.61-1.08.9-.2.18-.41.34-.62.51,0,0-.56.44-.18.15s-.15.11-.18.13l-.66.47c-.43.31-.88.6-1.33.87s-.69.41-1,.59l-.71.36c-.06,0-.66.26-.2.09s-.27.08-.39.12l-.57.18a14.09,14.09,0,0,1-1.59.36c.87-.14-.22,0-.54,0s-1.37-.19-.48,0c-.42-.09-.85-.24-1.26-.32s.13.07.21.11a7.89,7.89,0,0,1-.81-.44c-.16-.09-.31-.2-.47-.3.1.06.48.47.19.11a6.5,6.5,0,0,0-.52-.53c-.37-.33.1.13.14.2-.11-.19-.25-.4-.37-.59s-.37-.58-.07-.08,0,.06,0-.09-.16-.53-.22-.81a2.46,2.46,0,0,0-.1-.5c.23.11,0,.87.06.18,0-.41,0-.81,0-1.22,0-.18,0-.36.05-.53,0,.17-.18.94,0,.12.11-.49.21-1,.35-1.45s.3-1,.48-1.44l.21-.54c.24-.67-.45.93.08-.18.41-.88.85-1.74,1.32-2.59,1.16-2.06,2.47-4,3.71-6q4.18-6.72,8.37-13.42a4.54,4.54,0,0,0-1.61-6.16,4.6,4.6,0,0,0-6.16,1.61c-2.42,3.86-4.76,7.76-7.25,11.57-.6.91-1.2,1.82-1.81,2.72-.25.38-.51.74-.77,1.11l-.35.46c.54-.72,0,0-.13.14a37.68,37.68,0,0,1-3.86,4c-.67.6-1.37,1.18-2.08,1.74.65-.52-.27.19-.48.35l-1.28.89a51.21,51.21,0,0,1-4.89,2.91c-.81.42-1.63.83-2.47,1.21-.41.2-.83.37-1.25.57s.11-.05.17-.07l-.91.37c-1.74.69-3.52,1.31-5.32,1.86a20.12,20.12,0,0,1-2.56.71c0-.05.9,0,.35-.05a3.74,3.74,0,0,0-.67,0c-.57.11.46,0,.38.07s-.64-.19-.77-.2c-.55,0,.42.14.34.16a2.69,2.69,0,0,1-.56-.3c-.66-.33.58.56-.19-.16,0,0-.34-.3-.33-.34s.59,1,.14.16a1.81,1.81,0,0,0-.23-.41c-.12-.22-.11-.19,0,.11s.13.33,0,0a1.71,1.71,0,0,0-.12-.47c-.3-.41,0,.77,0,.24a2.8,2.8,0,0,0,0-.5c-.09-.75.16.25-.07.19,0,0,.68-2.42.75-2.63.53-1.76,1.06-3.51,1.62-5.26,1.14-3.62,2.34-7.22,3.66-10.78.64-1.73,1.3-3.45,2-5.16l.3-.73c0,.07-.28.65-.07.18l.54-1.26c.39-.89.8-1.78,1.21-2.65a76,76,0,0,1,6-10.55l.82-1.16c.19-.25,1-1.25.36-.48.6-.76,1.22-1.51,1.87-2.23A35.09,35.09,0,0,1,199,160l-6.37-6.37a4.35,4.35,0,0,1-.5.55c.18-.16.68-.38-.05,0a1.41,1.41,0,0,0-.32.17c-.38.33.91-.26.38-.17-.71.13-1.45.38-2.16.54-.51.11.46-.09.44-.06a3.54,3.54,0,0,1-.63.06c-.43,0-.86.06-1.3.07-.92,0-1.84,0-2.76,0s-1.67-.12-2.5-.21l-1.44-.17c1,.13-.21,0-.59-.09-1.7-.27-3.4-.59-5.08-.95-.7-.15-1.41-.29-2.09-.49l-.72-.24c-.62-.19.58.36,0,0l-.49-.25s-1-.58-.43-.24-.09-.08-.21-.19l-.36-.35c-.67-.63.08.16.09.16s-.26-.41-.34-.53c-.44-.61.25.25.07.24a2.42,2.42,0,0,1-.13-.43c-.08-.62,0,.92,0,.3,0-1-.16.07-.1.13s.21-.63.16-.62-.43.78-.14.3c.19-.31.76-1,.24-.47,0,0,.4-.47.45-.46s-.75.53-.2.19c.28-.17.69-.21-.33.12.61-.2-.29.07-.44,0s.48,0,.51,0-1.14-.3-.45-.06a2.88,2.88,0,0,0,.48.15s-.92-.4-.51-.19c.87.42-.43-.54,0,0a4.09,4.09,0,0,0,.36.37c-.25,0-.55-.93-.19-.18.48,1-.29-.73,0,0s-.12-.31,0-.42,0,.57,0,.54.11-1.23,0-.37c0,.15-.25.55,0,0s0,0-.13.16l-.57.85q-1.89,2.78-3.81,5.52c-1.38,2-2.77,3.9-4.17,5.85-.33.46-.66.92-1,1.37a6.77,6.77,0,0,1-1.16,1.6c.16-.09.9-1.14,0,0-.26.33-.51.67-.76,1l-1.23,1.69c-5.79,7.91-11.08,14.85-17.15,22.34-2.83,3.5-5.72,7-8.74,10.32a53,53,0,0,1-6.61,6.53c-1.86,1.46-1.64,4.86,0,6.37,2,1.81,4.38,1.55,6.37,0a54.9,54.9,0,0,0,6.72-6.66c3.18-3.53,6.21-7.2,9.19-10.89q5.38-6.69,10.57-13.53,2.63-3.43,5.18-6.91l2.24-3c.41-.56.85-1.11,1.24-1.69.55-.84-1.06,1.34.07-.13.32-.41.63-.83.94-1.26,3.22-4.42,6.39-8.88,9.47-13.4,1.65-2.43,2.57-4.76,2.07-7.74a9,9,0,0,0-4.09-5.85,8.49,8.49,0,0,0-7-.95,9.92,9.92,0,0,0-6.07,6.25c-2.15,5.79,2.42,11,7.5,13a33.2,33.2,0,0,0,6.17,1.47c2.62.47,5.27.86,7.92,1.07,4.69.36,11,.31,14.34-3.65,1.5-1.81,1.9-4.62,0-6.37s-4.39-1.56-6.37,0c-6.16,4.9-10.59,11.84-14,18.82a166.87,166.87,0,0,0-9.21,23.75c-.61,1.93-1.2,3.87-1.78,5.8a13.82,13.82,0,0,0-.7,7,10.76,10.76,0,0,0,10.24,8.36,20.65,20.65,0,0,0,6.59-1.47c2.16-.71,4.28-1.55,6.37-2.45a53.22,53.22,0,0,0,10.72-6.07,44.21,44.21,0,0,0,10.43-10.71c3.17-4.67,6.06-9.52,9.06-14.29a4.54,4.54,0,0,0-1.61-6.16,4.6,4.6,0,0,0-6.16,1.61c-2.68,4.27-5.33,8.54-8,12.82-2.41,3.87-4.91,7.64-6.54,11.92s-1.94,9,.29,12.94a12.85,12.85,0,0,0,12.28,6.16c5-.49,9.1-3,12.93-6.13s7.48-6.4,11.21-9.6l23-19.81,26.06-22.4a4.53,4.53,0,0,0,0-6.37,4.63,4.63,0,0,0-6.37,0Z"/><path class="cls-1" d="M259.42,183.94a29.14,29.14,0,0,1,2.83,1.71c.16.11,1.56,1.15.81.56.46.36.91.73,1.34,1.12a30.41,30.41,0,0,1,2.36,2.32q.53.57,1,1.17c.17.2.33.41.49.61-.6-.77.17.26.23.34.63.9,1.22,1.83,1.76,2.79q.38.69.72,1.38c.12.23.23.47.34.7s.16.36.23.54c-.17-.43-.2-.48-.07-.17a35.68,35.68,0,0,1,1.11,3.46c.14.56.25,1.12.35,1.68.17.89.05.27,0,.07,0,.43.09.85.11,1.28a22.45,22.45,0,0,1-.07,3.38c.07-.82,0-.12,0,.05-.07.34-.14.69-.22,1a18.69,18.69,0,0,1-.55,1.8c-.42,1.2.23-.3-.12.27-.13.2-.22.44-.34.65a12.33,12.33,0,0,1-.77,1.25c-.14.2-.67.83-.06.12l-.48.55a14.49,14.49,0,0,1-1.31,1.29l-.56.47c.13-.11.71-.49,0,0-.41.27-.81.54-1.24.79s-.87.44-1.31.67c.77-.41.27-.1.06,0s-.69.25-1.05.35-.94.26-1.42.36c0,0-1.21.14-.49.09s-.16,0-.32,0a14.18,14.18,0,0,1-1.46,0l-.9-.07c.6.05.48.08-.05,0a14.81,14.81,0,0,1-1.74-.45l-.68-.23c-.45-.17-.62-.31-.09,0-.53-.28-1.07-.53-1.59-.84l-.61-.39c-.14-.09-1.06-.82-.25-.15a17,17,0,0,1-2.54-2.55c.62.79-.28-.47-.42-.71s-.3-.52-.44-.78-.56-1.22-.15-.24c-.9-2.17-3-4-5.54-3.14-2.08.67-4.1,3.2-3.14,5.53a21,21,0,0,0,12.54,12,19.64,19.64,0,0,0,16.76-2A20.53,20.53,0,0,0,282,207.29c.76-6.11-1.15-12.52-4.22-17.78A35.78,35.78,0,0,0,264,176.16a4.5,4.5,0,0,0-4.54,7.78Z"/><path class="cls-1" d="M278.57,215.57a51.75,51.75,0,0,0,9.91-7.7,78,78,0,0,0,7.48-9.14c5.86-8,11.67-16.12,17.53-24.16l37.69-51.72,21.35-29.3c1.39-1.91.38-5.1-1.62-6.16A4.62,4.62,0,0,0,364.76,89q-18.7,25.65-37.4,51.32c-12.22,16.77-24.59,33.45-36.65,50.35-1.25,1.75-2.5,3.51-3.79,5.23l-.43.56c-.7.94.59-.73-.14.19-.28.35-.56.71-.85,1.06-.64.79-1.3,1.56-2,2.31a44.11,44.11,0,0,1-4.46,4.29c-.23.19-1.25,1-.5.42l-1.36,1c-1,.73-2.09,1.41-3.17,2.06a4.5,4.5,0,0,0,4.55,7.77Z"/><path class="cls-1" d="M298.59,181.14l-2.34,14.17c-.94,5.75-3.17,12.73.49,17.91,3.28,4.65,9.35,7,14.8,4.87a93.73,93.73,0,0,0,14.64-7.78A139.83,139.83,0,0,0,351.73,190a136.3,136.3,0,0,0,22-29.18,4.56,4.56,0,0,0-1.62-6.15,4.61,4.61,0,0,0-6.15,1.61l-29.11,40c-2.19,3-4.45,5.93-5.67,9.49a12.4,12.4,0,0,0,2,12.05c2.79,3.26,7.28,4.06,11.28,2.94,3.79-1.07,7.14-3.44,10.46-5.46l23.33-14.17a4.5,4.5,0,1,0-4.54-7.77l-19.3,11.72c-3.1,1.88-6.16,3.85-9.32,5.64-.65.37-1.33.7-2,1s.95-.26-.25.08c-.38.12-.75.25-1.14.35s-1.34.06-.33.08h-.75l-.37,0c.58.08.61.06.09-.05s-.47-.17,0,0c-.43-.29-.45-.28-.05,0-.19-.16-.35-.33-.52-.5.7.68,0,0-.12-.27-.54-.83.07.73-.08-.26,0,0-.2-1.2-.13-.48s0-.47,0-.5.21-1.45,0-.48a12.14,12.14,0,0,1,.29-1.19c.06-.19.49-1.29.13-.46,1.34-3.08,3.67-5.78,5.64-8.48l13.23-18.18,15-20.61L366,156.29a129.44,129.44,0,0,1-8.11,12.7c-.39.54-.78,1.07-1.18,1.6l-.47.64s-.77,1-.38.49l-.37.48c-.17.21-.33.42-.5.62-.41.52-.82,1-1.24,1.55-1.6,1.94-3.25,3.84-4.95,5.68A132.4,132.4,0,0,1,338,190.55q-1.43,1.23-2.88,2.43l-1.39,1.12-.62.5-.35.27c-2,1.53-4,3-6.1,4.42a135.15,135.15,0,0,1-12.91,7.78q-1.67.87-3.36,1.71l-1.61.77c-.82.4-.09,0,.08,0-.31.1-.65.18-1,.29-.93.33.65.06.08,0-.25,0-.53,0-.79,0a3.42,3.42,0,0,1-.62,0s1,.28.13,0l-.74-.2c-.68-.17.23.11.23.11a3.84,3.84,0,0,1-1.32-.76c0,.23.64.62.08,0l-.53-.54c-.64-.61.14.21.12.2s-.34-.51-.41-.64-.4-.56-.36-.68.33,1.08.1.2c0-.2-.12-.4-.17-.6s-.09-.42-.13-.63l.09.55s-.19-2.33-.08-.82a.19.19,0,0,1,0-.07c0-.19.06-.38.09-.58l1.08-6.53,2.53-15.35c.38-2.31-.61-5-3.15-5.54-2.17-.49-5.12.66-5.53,3.15Z"/><path class="cls-1" d="M329.47,116.09l47.72-.85a4.5,4.5,0,0,0,0-9l-47.72.85a4.5,4.5,0,0,0,0,9Z"/><path class="cls-1" d="M382.14,138a8.23,8.23,0,0,0-1.54-.61,7.64,7.64,0,0,0-1.72-.21,9.3,9.3,0,0,0-1.67.21,4.26,4.26,0,0,0-.54.16,10.34,10.34,0,0,0-1.49.67,9.56,9.56,0,0,0-1.35,1,3.5,3.5,0,0,0-.38.39,9.45,9.45,0,0,0-1,1.35,9.9,9.9,0,0,0-.63,1.5,2.33,2.33,0,0,0-.07.25,13.83,13.83,0,0,0-.19,1.44,4.57,4.57,0,0,0,1.32,3.57,5.25,5.25,0,0,0,1.34,1,8.3,8.3,0,0,0,1.52.6,8.39,8.39,0,0,0,1.65.22,8.79,8.79,0,0,0,1.66-.18,2.57,2.57,0,0,0,.55-.12,7.72,7.72,0,0,0,2.92-1.69,7.11,7.11,0,0,0,1.07-1.32,6.83,6.83,0,0,0,.71-1.56,3.34,3.34,0,0,0,.08-1.8,3.23,3.23,0,0,0-.53-1.67,3.28,3.28,0,0,0-1.16-1.26,3.34,3.34,0,0,0-1.53-.81L380,139a4.55,4.55,0,0,0-2.28.61l-.91.71a4.5,4.5,0,0,0-1.15,2l0,.09.45-1.07a1.94,1.94,0,0,1-.28.48l.71-.91a3.42,3.42,0,0,1-.43.42l.92-.7a2.84,2.84,0,0,1-.61.35l1.08-.45a3.37,3.37,0,0,1-.77.21l1.2-.16a3.27,3.27,0,0,1-.7,0l1.2.17a2.68,2.68,0,0,1-.63-.18l1.08.46a2.43,2.43,0,0,1-.44-.26l.91.71,0,0,1.32,3.18a2.68,2.68,0,0,1,0-.49l-.16,1.2a2.43,2.43,0,0,1,.17-.6l-.46,1.07a3,3,0,0,1,.37-.62l-.7.91a2.92,2.92,0,0,1,.56-.55l-.91.7a2.86,2.86,0,0,1,.68-.39l-1.08.45a2.77,2.77,0,0,1,.75-.2l-1.2.16a2.22,2.22,0,0,1,.63,0l-1.2-.16a2.19,2.19,0,0,1,.56.14l-1.07-.45.09,0a3.23,3.23,0,0,0,1.67.53,3.34,3.34,0,0,0,1.8-.08,4.94,4.94,0,0,0,2.68-2.06l.46-1.08a4.61,4.61,0,0,0,0-2.39l-.46-1.08a4.52,4.52,0,0,0-1.61-1.61Z"/><path class="cls-1" d="M242.3,137.66c-.24-.33-.51-.68-.77-1l-.08-.09-.09-.09c-.31-.26-.66-.53-1-.77l-.22-.13-.1-.05c-.38-.17-.78-.35-1.17-.49l-.25-.07-.12,0c-.43-.06-.87-.13-1.3-.17h-.38c-.44,0-.89.1-1.32.17a2.73,2.73,0,0,0-.51.14,7.53,7.53,0,0,0-1.51.69,12.38,12.38,0,0,0-1.08.83l-.19.19c-.27.31-.51.65-.76,1l-.08.11-.12.22a5.83,5.83,0,0,0-.72,2.71,2.69,2.69,0,0,0,.07.65l.08.6.46,1.07a4.55,4.55,0,0,0,.78,1c.17.15.37.29.54.42s.36.3.56.43a.94.94,0,0,0,.22.12,8.23,8.23,0,0,0,1.3.53l.12,0c.41.08.85.12,1.28.17l.27,0,.24,0a11.46,11.46,0,0,0,1.43-.21,8.68,8.68,0,0,0,1.55-.63,2.53,2.53,0,0,0,.47-.28,9.41,9.41,0,0,0,1.28-1,13.54,13.54,0,0,0,.88-1.12c.06-.08.11-.17.16-.25l.06-.13c.18-.38.35-.79.5-1.18a1.52,1.52,0,0,0,.09-.28s0-.09,0-.13c.07-.43.14-.87.17-1.3a1.41,1.41,0,0,0,0-.29,7.88,7.88,0,0,0-.22-1.45c0-.05,0-.09,0-.14-.16-.4-.32-.82-.52-1.21a3.43,3.43,0,0,0-1.16-1.26,3.32,3.32,0,0,0-1.53-.8l-1.19-.16a4.42,4.42,0,0,0-2.27.61c-.48.3-.94.63-1.4.94l-.69.48a2.67,2.67,0,0,1-.43.25l1.08-.45h0l1.19-.16h0l1.19.16h0l1.07.45h0l1.62,1.61h0l.46,1.08h0l.16,1.2h0l-.16,1.19h0l-.45,1.07,0,0-.71.91.1-.11a3.32,3.32,0,0,0,.93-1.44,3.47,3.47,0,0,0,.39-1.74,3.41,3.41,0,0,0-.39-1.73,3.36,3.36,0,0,0-.93-1.45l-.91-.7a4.43,4.43,0,0,0-2.27-.62l-1.2.16a4.52,4.52,0,0,0-2,1.16l-.08.09a5.68,5.68,0,0,0-.37.47,4.16,4.16,0,0,0-.37.48s-.45,1-.46,1.09a3.48,3.48,0,0,0-.16,1.2l.16,1.2.45,1.08.36.45a3.28,3.28,0,0,0,1.26,1.16l1.08.46,1.2.16,1.21-.17c.18,0,1-.42.56-.23,0,0,.39-.15.57-.24l.21-.12c.5-.32,1-.68,1.49-1,.26-.17.51-.35.78-.52l-6.16-1.61,0,.1-.45-1.08a2.08,2.08,0,0,1,.11.41l-.16-1.2a1.88,1.88,0,0,1,0,.41l.16-1.2a1.51,1.51,0,0,1-.13.46l.46-1.07a2.36,2.36,0,0,1-.29.48l.71-.91a2.78,2.78,0,0,1-.49.48l.91-.7a2.79,2.79,0,0,1-.63.36l1.08-.45a2.38,2.38,0,0,1-.58.16l1.2-.16a2.17,2.17,0,0,1-.51,0l1.19.16a1.86,1.86,0,0,1-.39-.1l1.08.45a1.31,1.31,0,0,1-.36-.21l.91.71-.17-.15,1.32,3.18a.37.37,0,0,0,0-.11l-.16,1.2a1.56,1.56,0,0,1,.1-.37l-.45,1.08a1.51,1.51,0,0,1,.2-.35l-.7.91a1.82,1.82,0,0,1,.31-.31l-.91.7a2.31,2.31,0,0,1,.48-.28l-1.07.45a2.64,2.64,0,0,1,.61-.17l-1.19.16a2.62,2.62,0,0,1,.56,0l-1.2-.16a1.83,1.83,0,0,1,.46.12l-1.08-.45a1.36,1.36,0,0,1,.35.21l-.91-.71a3,3,0,0,1,.25.25l-.71-.91.05.06a3.43,3.43,0,0,0,1.16,1.26,3.23,3.23,0,0,0,1.53.8,3.3,3.3,0,0,0,1.79.08,3.23,3.23,0,0,0,1.67-.53l.91-.7a4.46,4.46,0,0,0,1.16-2l.16-1.19a4.55,4.55,0,0,0-.61-2.28Z"/><path class="cls-1" d="M180.77,74.21a92.44,92.44,0,0,0,30.59-13.8c9.13-6.36,18.55-14.55,23-25,2.39-5.59,3.34-11.86,1.31-17.73A24.87,24.87,0,0,0,224.2,4.13c-11.5-6.38-25-4.24-37.08-1.1a262.63,262.63,0,0,0-56.24,21.84,273.8,273.8,0,0,0-49.8,33.77A269.59,269.59,0,0,0,40,102.48a248.74,248.74,0,0,0-29.72,51.46C1.32,175-6.12,201.11,7.45,222c11.33,17.42,33,25.75,53.2,24.76,12.37-.61,24.24-4.14,35.54-9.07a127.49,127.49,0,0,0,29.11-17.13c16.62-13.37,28.9-31.3,41.49-48.28q2.22-3,4.45-5.94l1.17-1.54L173,164c.46-.6-.64.82.12-.15s1.57-2,2.36-3c1.46-1.84,1.93-4.6,0-6.37-1.63-1.49-4.8-2-6.37,0-6.49,8.17-12.58,16.65-18.82,25q-2.26,3-4.58,6.05c-.52.68-.13.18,0,0l-.62.78c-.36.48-.73,1-1.1,1.42q-1.23,1.56-2.49,3.12c-3.23,4-6.57,7.9-10.1,11.64a128.3,128.3,0,0,1-11,10.41c-.88.73-1.78,1.45-2.68,2.16.67-.53.14-.11,0,0l-.76.58c-.56.42-1.12.83-1.69,1.23q-2.94,2.08-6.06,3.92c-10.22,6-19.77,10.64-30.92,13.82q-4,1.16-8.15,1.94c-1.3.25-2.6.46-3.91.64l-.55.07-.87.09c-.73.08-1.47.15-2.2.2a67.62,67.62,0,0,1-8.42.15q-1.62-.07-3.24-.24l-1.8-.21c.15,0,1,.14.12,0l-1.08-.17a62.31,62.31,0,0,1-6.73-1.52c-1.16-.34-2.31-.7-3.46-1.11-.45-.16-.91-.32-1.36-.5s-.67-.26-1-.39-1.23-.53-.26-.1a58.29,58.29,0,0,1-6.11-3.09q-1.39-.81-2.73-1.71c-.49-.33-1-.67-1.46-1l-.58-.42-.57-.43c.4.31.47.36.22.16a54.68,54.68,0,0,1-5.07-4.67c-.73-.78-1.41-1.58-2.08-2.4-.53-.64-.05,0,0,.08-.22-.28-.43-.56-.64-.85-.34-.48-.68-1-1-1.45a41.68,41.68,0,0,1-3.34-6.12c-.34-.76.35,1-.13-.34l-.31-.81c-.25-.68-.48-1.36-.7-2-.43-1.37-.79-2.76-1.08-4.16-.13-.62-.25-1.26-.35-1.89-.06-.35-.12-.7-.17-1.06,0,.2.1.83,0-.07-.16-1.43-.27-2.85-.32-4.28a59.65,59.65,0,0,1,.32-8.45c0-.36.08-.72.12-1.08,0-.14.11-.89,0-.11.09-.73.21-1.46.33-2.18.24-1.46.53-2.91.85-4.35q.91-4.12,2.18-8.18c.85-2.77,1.81-5.5,2.84-8.21.49-1.31,1-2.6,1.53-3.89l.57-1.38c.06-.15.55-1.3.13-.31.14-.34.29-.68.44-1q2.82-6.6,6-13a246.47,246.47,0,0,1,14.41-25q3.93-6,8.2-11.75c.7-.95,1.41-1.89,2.12-2.83l.45-.59.33-.43c-.41.53.34-.43.34-.43l.68-.88c1.46-1.85,3-3.69,4.45-5.5A265.44,265.44,0,0,1,75,76.27,274.65,274.65,0,0,1,96.86,57.36l.71-.55,1.34-1c1-.75,2-1.49,3-2.23,2-1.43,3.93-2.84,5.92-4.22q5.91-4.08,12-7.84a263.82,263.82,0,0,1,25.4-13.78c2.19-1,4.4-2,6.62-3L155,23.38c1.11-.48-.57.23.13-.05L156,23l1.72-.71q6.74-2.73,13.62-5.09t13.89-4.3A117.63,117.63,0,0,1,201,9.29c-.91.12.56-.06.6-.06q.45-.06.9-.09c.68-.06,1.35-.11,2-.15a43.72,43.72,0,0,1,4.72,0c.6,0,1.2.09,1.8.16-.79-.09.17,0,.36.05l1.12.2A30.81,30.81,0,0,1,217,10.66l.87.33c-.81-.32.37.16.44.2.47.22.93.46,1.39.71s1.12.66,1.66,1c.22.14.43.3.64.45.85.58-.38-.39.32.25.92.83,1.74,1.7,2.59,2.61.5.53-.56-.85.12.16.15.22.3.43.44.65.46.7.83,1.43,1.22,2.16.07.13.35.8.07.1.1.26.2.52.29.78a16.77,16.77,0,0,1,.55,2c.06.26.1.52.16.78.25,1.21,0-.57,0,.17s.09,1.43.07,2.15c0,.26,0,.52,0,.78s-.16,1.44,0,.35c-.07.51-.17,1-.28,1.54a26.14,26.14,0,0,1-1.18,3.77c.36-.93-.14.3-.19.4s-.23.49-.35.73c-.3.61-.63,1.21-1,1.8A38.62,38.62,0,0,1,222.55,38l-.49.66c.44-.61,0,0-.06.08-.43.53-.87,1.07-1.32,1.59-.89,1-1.82,2-2.79,3-1.84,1.85-3.77,3.62-5.77,5.29-.52.44-1.06.88-1.59,1.31l-.65.51c.74-.58-.33.25-.4.3-1.09.83-2.21,1.63-3.35,2.4a89,89,0,0,1-13.64,7.66l-1.13.5c-.14.06-.8.33-.07,0l-1.91.77c-1.15.45-2.31.87-3.48,1.28q-3.71,1.26-7.52,2.19a4.5,4.5,0,0,0,2.39,8.68Z"/><path class="cls-2" d="M152,82.19l13.64,26.21-15.26,7.94a30,30,0,0,1-40.27-12.71,29.34,29.34,0,0,1,12.46-39.45L138.36,56l9.37-4.87a15.92,15.92,0,0,1,21.42,6.77L175.46,70Z"/><line class="cls-2" x1="165.64" y1="108.41" x2="165.64" y2="108.4"/><line class="cls-2" x1="152" y1="82.19" x2="138.36" y2="55.96"/><path class="cls-2" d="M175,103.53l-9.36,4.87L152,82.19,175.46,70l6.31,12.13A15.93,15.93,0,0,1,175,103.53Z"/><path class="cls-2" d="M397,194.33l-5.68,4.7a7.17,7.17,0,0,1-10.08-.94l-4-4.88a7.17,7.17,0,0,1,.95-10.07l5.67-4.71a.9.9,0,0,1,1.27.12l12,14.51A.9.9,0,0,1,397,194.33Z"/><path class="cls-2" d="M405.13,183.91l-9.23,7.65-9.55-11.51,9.23-7.66a.36.36,0,0,1,.5.05l9.1,11A.36.36,0,0,1,405.13,183.91Z"/><text/><text class="cls-3" transform="translate(217.01 262.53)">&lt;DEV/&gt;</text></g></g></svg>